<?xml version="1.0" encoding="UTF-8"?>
<svg width="128" height="128" viewBox="0 0 128 128" fill="none" xmlns="http://www.w3.org/2000/svg">
<path d="M58.5363 51.0405C60.9028 43.0841 58.5363 21.6019 53.9665 20.082C51.4265 19.2354 49.6007 24.7539 50.4167 45.4608C47.5402 38.1879 40.9813 24.0398 37.7273 25.6617C34.4835 27.2836 37.7273 40.5544 39.7572 46.9807" stroke="#26985D" stroke-width="4"/>
<path d="M39.6757 72.5533L39.7675 73.5937L39.9409 73.5733C39.8491 73.2469 39.7573 72.9103 39.6757 72.5635C39.6757 72.5635 39.6757 72.5635 39.6757 72.5533Z" fill="#000"/>
<path d="M93.7484 42.1864C93.6872 41.5132 93.1261 41.0338 92.5039 41.095L79.9471 42.3598C79.9165 42.7168 79.8553 43.1045 79.7329 43.5125C78.264 48.6535 75.3263 50.051 72.8884 50.051C70.4403 50.051 69.461 46.3176 69.9507 43.9817C69.9915 43.7879 70.0425 43.5737 70.1037 43.3493L69.5426 43.4105C67.9412 48.2047 65.1156 49.5512 62.7287 49.5512C60.6376 49.5512 59.587 46.8072 59.5564 44.4203L38.5026 46.542C37.8803 46.6032 37.4111 47.2051 37.4723 47.8783L39.39 69.3707C39.3798 68.4731 39.4512 67.5448 39.6756 66.8002C40.1346 65.2803 40.3183 64.4847 41.6137 63.2504C44.2556 60.7309 54.9967 58.8132 59.9848 63.2504C62.8409 65.8006 52.3956 70.8804 52.3956 70.8804C52.3956 70.8804 51.9672 70.758 53.0484 72.4003L77.0094 70.2377L77.3154 72.6349L95.1662 70.8396C95.7885 70.7784 96.2577 70.1765 96.1965 69.5033L93.7484 42.1864Z" fill="#BFE5D1"/>
<path d="M54.1705 73.9814C51.7122 70.6765 52.3956 70.8703 52.3956 70.8703C52.3956 70.8703 62.8409 65.7905 59.9848 63.2403C54.9967 58.8031 44.2556 60.7208 41.6137 63.2403C40.3182 64.4746 40.1346 65.2804 39.6756 66.7901C39.0228 68.9424 39.6756 72.5636 39.6756 72.5636C40.9506 78.0208 44.2556 80.9586 46.5915 85.7222C48.04 88.6803 50.1719 90.4042 50.1719 90.4042H61.27C61.27 90.4042 69.0428 89.4658 72.1539 84.5083C73.0516 83.0803 73.3882 82.203 74.092 80.6832C75.4793 77.6638 77.04 72.7472 77.04 72.7472" stroke="#26985D" stroke-width="4" stroke-linecap="round"/>
<path fill-rule="evenodd" clip-rule="evenodd" d="M42.1747 89.5881C42.0421 89.7309 41.9503 89.9145 41.9197 90.1287C41.2771 93.1889 40.5631 96.249 39.849 99.2786C39.3084 101.594 38.7678 103.879 38.2679 106.144C38.0537 106.98 38.727 108 40.0938 108H69.665H73.7554C74.8877 108 75.7955 107.327 75.7955 106.49C75.7955 102.951 75.7955 99.401 75.5813 95.8614C75.5813 93.6683 75.3569 91.4752 74.9081 89.1087C74.4491 86.9156 72.868 85.4059 69.6752 85.4059C67.5535 85.4059 65.2584 86.0078 63.2183 86.7116C63.1265 86.6708 63.0449 86.6402 62.9531 86.5994C61.6066 86.0588 60.3112 85.5283 58.7505 85.3957C57.2919 85.2937 55.9352 85.6609 54.7927 86.2934C52.2936 84.9571 48.4684 84.6307 45.7857 85.5589C43.7558 86.3138 42.4501 87.854 42.1747 89.5881Z" fill="#26985D"/>
<path d="M79.7329 43.5227C80.9059 39.4119 77.6112 38.0756 75.8159 37.9124C71.8989 37.4432 70.4402 41.6458 69.9506 43.9817C69.461 46.3176 70.4402 50.051 72.8883 50.051C75.3263 50.0612 78.264 48.6637 79.7329 43.5227Z" stroke="#26985D" stroke-width="4"/>
<path d="M69.8283 42.4517C71.0421 37.9839 67.6249 36.5252 65.7685 36.362C61.7087 35.852 60.1888 40.4218 59.6788 42.9617C59.1687 45.5016 60.1888 49.5614 62.7287 49.5614C65.2584 49.5512 68.3084 48.0313 69.8283 42.4517Z" stroke="#26985D" stroke-width="4"/>
<path d="M86.3836 41.6254C86.3632 41.4928 86.2612 41.3908 86.1286 41.401L79.9777 42.013C79.9675 42.472 79.8961 42.9617 79.7329 43.5125C78.264 48.6535 75.3263 50.051 72.8884 50.051C70.4403 50.051 69.461 46.3176 69.9506 43.9817C70.0118 43.6757 70.0934 43.3391 70.1954 42.9922L69.6446 43.0433C68.0737 48.1231 65.1666 49.541 62.7185 49.541C60.5254 49.541 59.4747 46.5114 59.5563 44.0531L32.0048 46.8174C31.8824 46.8378 31.7804 46.95 31.8008 47.0826L34.2285 74.2567C34.2489 74.3893 34.3509 74.4913 34.4835 74.4811L40.053 73.9201C39.9102 73.4815 39.7878 73.0327 39.6756 72.5634C39.6756 72.5634 39.0228 68.9423 39.6756 66.79C40.1346 65.2701 40.3182 64.4745 41.6137 63.2402C44.2556 60.7207 54.9967 58.803 59.9848 63.2402C62.8409 65.7903 52.3956 70.8702 52.3956 70.8702C52.3956 70.8702 51.9264 70.7478 53.1912 72.6042L88.6175 69.0545C88.7399 69.0341 88.8419 68.9219 88.8215 68.7893L86.3836 41.6254Z" stroke="#26985D" stroke-width="4"/>
<path d="M59.9848 63.2402C60.9232 64.0767 60.4234 65.1783 59.3422 66.2902C61.2089 66.8614 63.2795 66.6166 65.0646 65.1273C68.645 62.108 69.104 56.5283 67.0027 52.6725C65.034 49.1023 60.3214 47.1031 56.7818 50.0816C53.7217 52.6725 52.9465 57.1301 54.1093 60.7819C56.3432 61.1083 58.4445 61.8734 59.9848 63.2402Z" fill="#26985D"/>
</svg>


