<?xml version="1.0" encoding="UTF-8"?>
<svg fill="#488359" width="100pt" height="100pt" version="1.1" viewBox="0 0 100 100" xmlns="http://www.w3.org/2000/svg">
  <path d="m86.793 83.809c8.4805-9.207 13.188-21.27 13.188-33.789 0-12.516-4.707-24.578-13.188-33.785l8.293-8.293c0.77734-0.83203 0.75391-2.1289-0.050782-2.9336-0.80469-0.80469-2.1016-0.82812-2.9336-0.050781l-8.293 8.25c-9.207-8.4805-21.27-13.187-33.789-13.187-12.516 0-24.578 4.707-33.785 13.187l-8.3359-8.293c-0.83203-0.77734-2.1289-0.75391-2.9336 0.050782-0.80469 0.80469-0.82812 2.1016-0.050782 2.9336l8.293 8.293c-8.4805 9.207-13.187 21.27-13.187 33.789 0 12.516 4.707 24.578 13.187 33.785l-8.293 8.3359c-0.39844 0.39453-0.625 0.93359-0.625 1.4922 0 0.5625 0.22656 1.0977 0.625 1.4922 0.38672 0.41406 0.92578 0.64844 1.4922 0.64844 0.55859 0.003906 1.0977-0.21875 1.4922-0.62109l8.293-8.293v0.003907c9.207 8.4766 21.27 13.184 33.789 13.184 12.516 0 24.578-4.707 33.785-13.184l8.293 8.293v-0.003907c0.39453 0.39844 0.93359 0.625 1.4922 0.62109 0.5625 0.007813 1.1016-0.21484 1.4922-0.62109 0.39844-0.39453 0.625-0.92969 0.625-1.4922 0-0.55859-0.22656-1.0977-0.625-1.4922zm-36.785 11.926c-11.414 0.011719-22.418-4.2578-30.832-11.969l14.316-14.273v8.9961c0 1.1641 0.94531 2.1133 2.1133 2.1133 1.1641 0 2.1094-0.94922 2.1094-2.1133v-14.078c0-1.168-0.94531-2.1133-2.1094-2.1133h-14.078c-1.168 0-2.1133 0.94531-2.1133 2.1133 0 1.1641 0.94531 2.1094 2.1133 2.1094h8.9961l-14.332 14.305c-7.6992-8.418-11.969-19.414-11.969-30.824s4.2695-22.406 11.969-30.824l14.316 14.316h-8.9961c-1.1641 0-2.1133 0.94531-2.1133 2.1133 0 1.1641 0.94922 2.1094 2.1133 2.1094h14.078c1.168 0 2.1133-0.94531 2.1133-2.1094v-14.078c0-1.168-0.94531-2.1133-2.1133-2.1133-1.1641 0-2.1094 0.94531-2.1094 2.1133v8.9961l-14.305-14.332c8.418-7.6992 19.414-11.969 30.824-11.969s22.406 4.2695 30.824 11.969l-14.316 14.316v-8.9961c0-1.1641-0.94531-2.1133-2.1133-2.1133-1.1641 0-2.1094 0.94922-2.1094 2.1133v14.078c0 1.168 0.94531 2.1133 2.1094 2.1133h14.078c1.168 0 2.1133-0.94531 2.1133-2.1133 0-1.1641-0.94531-2.1094-2.1133-2.1094h-8.9805l14.316-14.305c7.6992 8.418 11.969 19.414 11.969 30.824s-4.2695 22.406-11.969 30.824l-14.316-14.316h8.9961c1.1641 0 2.1133-0.94531 2.1133-2.1133 0-1.1641-0.94922-2.1094-2.1133-2.1094h-14.078c-1.168 0-2.1133 0.94531-2.1133 2.1094v14.078c0 1.168 0.94531 2.1133 2.1133 2.1133 1.1641 0 2.1094-0.94531 2.1094-2.1133v-8.9805l14.305 14.316c-8.418 7.6914-19.414 11.945-30.816 11.926z"/>
</svg>
