<svg width="128" height="128" viewBox="0 0 128 128" fill="none" xmlns="http://www.w3.org/2000/svg">
<path d="M27.0275 103.473H25.011C25.011 104.582 25.9184 105.489 27.0275 105.489V103.473ZM25.011 71.1283C25.011 72.2374 25.9184 73.1448 27.0275 73.1448C28.1466 73.1448 29.044 72.2374 29.044 71.1283H25.011ZM29.044 80.374C29.044 79.2649 28.1466 78.3575 27.0275 78.3575C25.9184 78.3575 25.011 79.2649 25.011 80.374H29.044ZM25.011 89.6095C25.011 90.7186 25.9184 91.626 27.0275 91.626C28.1466 91.626 29.044 90.7186 29.044 89.6095H25.011ZM29.044 98.8552C29.044 97.7461 28.1466 96.8387 27.0275 96.8387C25.9184 96.8387 25.011 97.7461 25.011 98.8552H29.044ZM31.5848 105.489C32.7039 105.489 33.6013 104.582 33.6013 103.473C33.6013 102.364 32.7039 101.456 31.5848 101.456V105.489ZM40.7094 101.456C39.5903 101.456 38.6929 102.364 38.6929 103.473C38.6929 104.582 39.5903 105.489 40.7094 105.489V101.456ZM49.824 105.489C50.9331 105.489 51.8405 104.582 51.8405 103.473C51.8405 102.364 50.9331 101.456 49.824 101.456V105.489ZM58.9486 101.456C57.8295 101.456 56.9322 102.364 56.9322 103.473C56.9322 104.582 57.8295 105.489 58.9486 105.489V101.456ZM25.011 66.5106V71.1283H29.044V66.5106H25.011ZM25.011 80.374V89.6196H29.044V80.374H25.011ZM25.011 98.8552V103.473H29.044V98.8552H25.011ZM27.0275 105.489H31.5848V101.456H27.0275V105.489ZM40.7094 105.489H49.824V101.456H40.7094V105.489V105.489ZM58.9486 105.489H63.506V101.456H58.9486V105.489Z" fill="#BFE5D1"/>
<path d="M107.99 40.3566V30.143C107.99 29.7599 107.677 29.4473 107.294 29.4473H97.0907C96.7378 29.4473 96.4354 29.1751 96.4051 28.8222C96.0925 25.2832 93.1182 22.5106 89.4986 22.5106C85.879 22.5106 82.9046 25.2832 82.5921 28.8222C82.5618 29.1751 82.2594 29.4473 81.9065 29.4473H71.703C71.3199 29.4473 71.0073 29.7599 71.0073 30.143V40.3465C71.0073 40.7095 70.7351 41.0018 70.3822 41.0321C66.8433 41.3446 64.0706 44.319 64.0706 47.9386C64.0706 51.5582 66.8433 54.5325 70.3822 54.8451C70.7351 54.8753 71.0073 55.1778 71.0073 55.5307V65.7544C71.0073 66.1375 71.3199 66.45 71.703 66.45H81.9065C82.2695 66.45 82.5618 66.1778 82.5921 65.8249C82.9147 62.286 85.879 59.5133 89.4986 59.5133C93.1182 59.5133 96.0925 62.286 96.4051 65.8249C96.4354 66.1778 96.7378 66.45 97.0907 66.45H107.294C107.677 66.45 107.99 66.1375 107.99 65.7544V55.5408C107.99 55.1778 107.718 54.8854 107.365 54.8552C103.826 54.5325 101.053 51.5683 101.053 47.9487C101.053 44.3291 103.826 41.3547 107.365 41.0422C107.718 41.0119 107.99 40.7095 107.99 40.3566Z" fill="#BFE5D1"/>
<path d="M107.99 77.3492V67.1357C107.99 66.7525 107.677 66.44 107.294 66.44H97.0907C96.7378 66.44 96.4354 66.1678 96.4051 65.8149C96.0825 62.2759 93.1182 59.5032 89.4986 59.5032C85.879 59.5032 82.9046 62.2759 82.5921 65.8149C82.5618 66.1678 82.2594 66.44 81.9065 66.44H71.703C71.3199 66.44 71.0073 66.7525 71.0073 67.1357V77.3492C71.0073 77.7122 70.7351 78.0046 70.3822 78.0349C66.8433 78.3575 64.0706 81.3217 64.0706 84.9414C64.0706 88.561 66.8433 91.5353 70.3822 91.8479C70.7351 91.8781 71.0073 92.1806 71.0073 92.5335V102.737C71.0073 103.12 71.3199 103.433 71.703 103.433H81.9065C82.2695 103.433 82.5618 103.16 82.5921 102.808C82.9147 99.2686 85.879 96.4959 89.4986 96.4959C93.1182 96.4959 96.0926 99.2686 96.4051 102.808C96.4354 103.16 96.7378 103.433 97.0907 103.433H103.372H107.304C107.687 103.433 108 103.12 108 102.737V92.5335C108 92.1705 107.728 91.8781 107.375 91.8479C103.836 91.5252 101.063 88.561 101.063 84.9414C101.063 81.3217 103.836 78.3474 107.375 78.0349C107.718 78.0046 107.99 77.7021 107.99 77.3492Z" fill="#BFE5D1"/>
<path d="M70.9973 40.3566V30.143C70.9973 29.7599 70.6847 29.4473 70.3016 29.4473H60.0981C59.7351 29.4473 59.4428 29.1751 59.4125 28.8222C59.1 25.2832 56.1256 22.5106 52.506 22.5106C48.8763 22.5106 45.9121 25.2832 45.5995 28.8222C45.5692 29.1751 45.2668 29.4473 44.9139 29.4473H34.7104C34.3273 29.4473 34.0147 29.7599 34.0147 30.143V40.3465C34.0147 40.7095 33.7425 41.0018 33.3896 41.0321C29.8405 41.3547 27.0679 44.3291 27.0679 47.9487C27.0679 51.5683 29.8406 54.5426 33.3795 54.8552C33.7324 54.8854 34.0046 55.1879 34.0046 55.5408V65.7544C34.0046 66.1375 34.3172 66.45 34.7003 66.45H44.9038C45.2668 66.45 45.5592 66.1778 45.5894 65.8249C45.902 62.286 48.8763 59.5133 52.4959 59.5133C56.1155 59.5133 59.0899 62.286 59.4024 65.8249C59.4327 66.1778 59.7351 66.45 60.088 66.45H70.2915C70.6746 66.45 70.9872 66.1375 70.9872 65.7544V55.5408C70.9872 55.1778 70.715 54.8854 70.3621 54.8552C66.8231 54.5426 64.0504 51.5683 64.0504 47.9487C64.0504 44.3291 66.8231 41.3547 70.3621 41.0422C70.7251 41.0119 70.9973 40.7095 70.9973 40.3566Z" fill="#BFE5D1"/>
<path d="M75.5041 66.45C75.5041 62.6186 78.6095 59.5132 82.4409 59.5132C86.2722 59.5132 89.3776 62.6186 89.3776 66.45H100.942V78.0146C97.1109 78.0146 94.0055 81.12 94.0055 84.9513C94.0055 88.7827 97.1109 91.8881 100.942 91.8881V103.453H89.3776C89.3776 99.6214 86.2722 96.516 82.4409 96.516C78.6095 96.516 75.5041 99.6214 75.5041 103.453H63.9395V91.878C60.1082 91.878 57.0028 88.7726 57.0028 84.9413C57.0028 81.1099 60.1082 78.0045 63.9395 78.0045V66.45V54.8854C60.1082 54.8854 57.0028 51.78 57.0028 47.9486C57.0028 44.1173 60.1082 41.0119 63.9395 41.0119V29.4573H52.3749C52.3749 25.626 49.2695 22.5206 45.4381 22.5206C41.6068 22.5206 38.5014 25.626 38.5014 29.4573H33.8735H26.9368V41.0219C23.1054 41.0219 20 44.1273 20 47.9587C20 51.79 23.1054 54.8954 26.9368 54.8954V66.4601H38.5014C38.5014 62.6287 41.6068 59.5233 45.4381 59.5233C49.2695 59.5233 52.3749 62.6287 52.3749 66.4601" stroke="#26985D" stroke-width="4" stroke-miterlimit="10" stroke-linecap="round" stroke-linejoin="round"/>
</svg>
