<?xml version="1.0" encoding="UTF-8"?>
<svg fill="#488359" width="100pt" height="100pt" version="1.1" viewBox="0 0 100 100" xmlns="http://www.w3.org/2000/svg">
 <g>
  <path d="m92.906 1.0156h-85.812c-3.918 0-7.0938 3.1758-7.0938 7.0938v83.781c0 3.918 3.1758 7.0938 7.0938 7.0938h85.812c3.918 0 7.0938-3.1758 7.0938-7.0938v-83.781c0-3.918-3.1758-7.0938-7.0938-7.0938zm-38.219 82.344v11.156h-9.375v-11.156c-0.003906-0.85938-0.49219-1.6406-1.2656-2.0156-4.7852-2.2695-7.8281-7.0977-7.8125-12.391 0.011719-4.4062 2.125-8.5469 5.6875-11.141v9.9375c0 0.70703 0.32812 1.3711 0.89062 1.7969l5.8438 4.4062c0.80469 0.58984 1.8984 0.58984 2.7031 0l5.8281-4.4062c0.5625-0.42578 0.89062-1.0898 0.89062-1.7969v-9.9375c3.5586 2.5898 5.6719 6.7227 5.6875 11.125 0.015625 5.293-3.0273 10.121-7.8125 12.391-0.77734 0.37891-1.2695 1.168-1.2656 2.0312zm40.781 8.5312c0 1.4453-1.1641 2.6172-2.6094 2.625h-33.641v-9.8125c3.9883-2.3125 6.957-6.0469 8.3047-10.457 1.3477-4.4102 0.97656-9.168-1.0391-13.312-2.0156-4.1484-5.5273-7.3789-9.8281-9.043-0.69141-0.26953-1.4688-0.17969-2.0781 0.23828-0.60938 0.42188-0.97266 1.1133-0.96875 1.8555v12.594l-3.6094 2.7969-3.6094-2.7188v-12.5c0.003906-0.74219-0.35938-1.4375-0.96875-1.8594-0.61328-0.41016-1.3867-0.49609-2.0781-0.23438-3.4062 1.3477-6.332 3.6836-8.3984 6.707-2.0664 3.0234-3.1797 6.5977-3.1953 10.262 0.003906 6.4609 3.4414 12.43 9.0312 15.672v9.8125h-33.688c-1.4453-0.007813-2.6094-1.1797-2.6094-2.625v-72.234h91.031zm0-76.719h-90.984v-7.0625c0-1.4453 1.1641-2.6172 2.6094-2.625h85.812c1.4453 0.007813 2.6094 1.1797 2.6094 2.625z"/>
  <path d="m12.047 8.0938c-0.91406-0.007812-1.7383 0.53906-2.0898 1.3828-0.35547 0.83984-0.16406 1.8125 0.48438 2.457 0.64453 0.64844 1.6172 0.83984 2.457 0.48438 0.84375-0.35156 1.3906-1.1758 1.3828-2.0898 0.003906-0.59766-0.23047-1.168-0.65625-1.5898-0.42188-0.42188-0.99609-0.65234-1.5938-0.64453z"/>
  <path d="m20.312 8.0938c-0.91016 0-1.7344 0.55078-2.082 1.3945-0.34375 0.83984-0.14844 1.8086 0.49609 2.4531 0.64844 0.64062 1.6172 0.82812 2.457 0.47656 0.83984-0.35156 1.3867-1.1797 1.3789-2.0898 0-0.59375-0.23828-1.1641-0.66016-1.5859-0.42188-0.41797-0.99609-0.65234-1.5898-0.64844z"/>
  <path d="m28.641 8.0938c-1.1641 0.097656-2.0625 1.0703-2.0625 2.2422 0 1.1719 0.89844 2.1445 2.0625 2.2422 0.62891 0.050781 1.2461-0.16016 1.7109-0.58594 0.46094-0.42578 0.72656-1.0273 0.72656-1.6562 0-0.62891-0.26562-1.2305-0.72656-1.6562-0.46484-0.42578-1.082-0.63672-1.7109-0.58594z"/>
  <path d="m87.984 8.0938h-16.5c-0.62891-0.050781-1.2461 0.16016-1.7109 0.58594-0.46094 0.42578-0.72656 1.0273-0.72656 1.6562 0 0.62891 0.26562 1.2305 0.72656 1.6562 0.46484 0.42578 1.082 0.63672 1.7109 0.58594h16.5c0.62891 0.050781 1.2461-0.16016 1.7109-0.58594 0.46094-0.42578 0.72656-1.0273 0.72656-1.6562 0-0.62891-0.26562-1.2305-0.72656-1.6562-0.46484-0.42578-1.082-0.63672-1.7109-0.58594z"/>
  <path d="m36.672 47.266 12.641 4.9062c0.23828 0.09375 0.49219 0.14062 0.75 0.14062 0.24609-0.003906 0.48828-0.042969 0.71875-0.125l12.734-4.8594c0.86719-0.33203 1.4414-1.1641 1.4375-2.0938v-15.875c0-0.20312-0.03125-0.40234-0.09375-0.59375 0.007813-0.042969 0.007813-0.082031 0-0.125-0.058594-0.19141-0.14844-0.37109-0.26562-0.53125-0.10547-0.15625-0.23828-0.29688-0.39062-0.40625l-0.09375-0.09375c-0.16016-0.11719-0.33203-0.21484-0.51562-0.29688l-12.734-4.8594c-0.50391-0.1875-1.0586-0.1875-1.5625 0l-12.266 4.8438c-0.21094 0.085937-0.41016 0.19531-0.59375 0.32812-0.19141 0.14062-0.35938 0.30859-0.5 0.5-0.10547 0.16406-0.1875 0.34375-0.25 0.53125v0.10938c-0.050781 0.18359-0.074219 0.37109-0.078125 0.5625l-0.34375 15.828c-0.019531 0.92969 0.54297 1.7695 1.4062 2.1094zm23.953-3.5156-8.2656 3.125v-11.109l8.2656-3.125zm-10.484-16.844 6.4375 2.4531-6.4375 2.4688-6.25-2.4688zm-10.156 5.7188 7.9062 3.125v11.125l-8.1406-3.125z"/>
 </g>
</svg>
