<svg width="128" height="128" viewBox="0 0 128 128" fill="none" xmlns="http://www.w3.org/2000/svg">
<g clip-path="url(#clip0_2_64)">
<path d="M68.7921 58.2705C68.3904 58.2705 68.0652 57.9357 68.0748 57.5244L68.7634 37.9348C68.7634 37.2079 67.8069 36.94 67.4339 37.5618L52.2061 62.9383C51.7852 63.6365 51.5652 64.4305 51.5652 65.2435C51.5652 67.7209 53.5739 69.7296 56.0513 69.7296H68.7252C69.1269 69.7296 69.4521 70.0644 69.4426 70.4757L68.7539 90.0652C68.7539 90.7922 69.7104 91.06 70.0834 90.4383L85.3017 65.0713C85.7226 64.3731 85.9426 63.5792 85.9426 62.7661C85.9426 60.2887 83.9339 58.28 81.4565 58.28H68.7921V58.2705Z" fill="#BFE5D1"/>
<path d="M63.6556 58.2705C63.2539 58.2705 62.9287 57.9357 62.9382 57.5244L63.6269 37.9348C63.6269 37.2079 62.6704 36.94 62.2974 37.5618L47.0791 62.9383C46.6582 63.6365 46.4382 64.4305 46.4382 65.2435C46.4382 67.7209 48.4469 69.7296 50.9243 69.7296H63.5982C64 69.7296 64.3252 70.0644 64.3156 70.4757L63.6269 90.0652C63.6269 90.7922 64.5834 91.06 64.9565 90.4383L80.1748 65.0713C80.5956 64.3731 80.8156 63.5792 80.8156 62.7661C80.8156 60.2887 78.8069 58.28 76.3295 58.28H63.6556V58.2705Z" stroke="#26985D" stroke-width="4" stroke-miterlimit="10"/>
<path d="M64 25.7391V21.913" stroke="#26985D" stroke-width="4" stroke-miterlimit="10" stroke-linecap="round" stroke-linejoin="round"/>
<path d="M36.9495 36.9496L34.2426 34.2426" stroke="#26985D" stroke-width="4" stroke-miterlimit="10" stroke-linecap="round" stroke-linejoin="round"/>
<path d="M25.7392 64H21.9131" stroke="#26985D" stroke-width="4" stroke-miterlimit="10" stroke-linecap="round" stroke-linejoin="round"/>
<path d="M36.9495 91.0504L34.2426 93.7574" stroke="#26985D" stroke-width="4" stroke-miterlimit="10" stroke-linecap="round" stroke-linejoin="round"/>
<path d="M64 102.261V106.087" stroke="#26985D" stroke-width="4" stroke-miterlimit="10" stroke-linecap="round" stroke-linejoin="round"/>
<path d="M91.0504 91.0504L93.7574 93.7574" stroke="#26985D" stroke-width="4" stroke-miterlimit="10" stroke-linecap="round" stroke-linejoin="round"/>
<path d="M102.261 64H106.087" stroke="#26985D" stroke-width="4" stroke-miterlimit="10" stroke-linecap="round" stroke-linejoin="round"/>
<path d="M91.0504 36.9496L93.7574 34.2426" stroke="#26985D" stroke-width="4" stroke-miterlimit="10" stroke-linecap="round" stroke-linejoin="round"/>
</g>
<defs>
<clipPath id="clip0_2_64">
<rect width="88" height="88" fill="white" transform="translate(20 20)"/>
</clipPath>
</defs>
</svg>
