<?xml version="1.0" encoding="UTF-8"?>
<svg width="128" height="128" viewBox="0 0 128 128" fill="none" xmlns="http://www.w3.org/2000/svg">
 <path d="M27.0272 103.473H25.0107C25.0107 104.582 25.9182 105.49 27.0272 105.49V103.473ZM25.0107 71.1285C25.0107 72.2376 25.9182 73.145 27.0272 73.145C28.1464 73.145 29.0437 72.2376 29.0437 71.1285H25.0107ZM29.0437 80.3742C29.0437 79.2651 28.1464 78.3577 27.0272 78.3577C25.9182 78.3577 25.0107 79.2651 25.0107 80.3742H29.0437ZM25.0107 89.6097C25.0107 90.7188 25.9182 91.6262 27.0272 91.6262C28.1464 91.6262 29.0437 90.7188 29.0437 89.6097H25.0107ZM29.0437 98.8554C29.0437 97.7463 28.1464 96.8389 27.0272 96.8389C25.9182 96.8389 25.0107 97.7463 25.0107 98.8554H29.0437ZM31.5845 105.49C32.7037 105.49 33.601 104.582 33.601 103.473C33.601 102.364 32.7037 101.457 31.5845 101.457V105.49ZM40.7092 101.457C39.59 101.457 38.6927 102.364 38.6927 103.473C38.6927 104.582 39.59 105.49 40.7092 105.49V101.457ZM49.8238 105.49C50.9328 105.49 51.8403 104.582 51.8403 103.473C51.8403 102.364 50.9328 101.457 49.8238 101.457V105.49ZM58.9484 101.457C57.8292 101.457 56.9319 102.364 56.9319 103.473C56.9319 104.582 57.8292 105.49 58.9484 105.49V101.457ZM25.0107 66.5107V71.1285H29.0437V66.5107H25.0107ZM25.0107 80.3742V89.6198H29.0437V80.3742H25.0107ZM25.0107 98.8554V103.473H29.0437V98.8554H25.0107ZM27.0272 105.49H31.5845V101.457H27.0272V105.49ZM40.7092 105.49H49.8238V101.457H40.7092V105.49ZM58.9484 105.49H63.5057V101.457H58.9484V105.49Z" fill="#BFE5D1"/>
 <path d="M107.99 40.3567V30.1432C107.99 29.7601 107.677 29.4475 107.294 29.4475H97.0905C96.7376 29.4475 96.4351 29.1753 96.4049 28.8224C96.0923 25.2834 93.1179 22.5107 89.4983 22.5107C85.8787 22.5107 82.9044 25.2834 82.5918 28.8224C82.5616 29.1753 82.2591 29.4475 81.9062 29.4475H71.7028C71.3196 29.4475 71.0071 29.7601 71.0071 30.1432V40.3467C71.0071 40.7096 70.7348 41.002 70.382 41.0323C66.843 41.3448 64.0703 44.3192 64.0703 47.9388C64.0703 51.5584 66.843 54.5327 70.382 54.8453C70.7348 54.8755 71.0071 55.178 71.0071 55.5309V65.7545C71.0071 66.1377 71.3196 66.4502 71.7028 66.4502H81.9062C82.2692 66.4502 82.5616 66.178 82.5918 65.8251C82.9145 62.2862 85.8787 59.5135 89.4983 59.5135C93.1179 59.5135 96.0923 62.2862 96.4049 65.8251C96.4351 66.178 96.7376 66.4502 97.0905 66.4502H107.294C107.677 66.4502 107.99 66.1377 107.99 65.7545V55.541C107.99 55.178 107.717 54.8856 107.365 54.8554C103.826 54.5327 101.053 51.5685 101.053 47.9489C101.053 44.3293 103.826 41.3549 107.365 41.0424C107.717 41.0121 107.99 40.7096 107.99 40.3567Z" fill="#BFE5D1"/>
 <path d="M107.99 77.3494V67.1359C107.99 66.7527 107.677 66.4402 107.294 66.4402H97.0905C96.7376 66.4402 96.4351 66.1679 96.4049 65.8151C96.0822 62.2761 93.1179 59.5034 89.4983 59.5034C85.8787 59.5034 82.9044 62.2761 82.5918 65.8151C82.5616 66.1679 82.2591 66.4402 81.9062 66.4402H71.7028C71.3196 66.4402 71.0071 66.7527 71.0071 67.1359V77.3494C71.0071 77.7124 70.7348 78.0048 70.382 78.035C66.843 78.3577 64.0703 81.3219 64.0703 84.9415C64.0703 88.5612 66.843 91.5355 70.382 91.848C70.7348 91.8783 71.0071 92.1808 71.0071 92.5337V102.737C71.0071 103.12 71.3196 103.433 71.7028 103.433H81.9062C82.2692 103.433 82.5616 103.161 82.5918 102.808C82.9145 99.2688 85.8787 96.4961 89.4983 96.4961C93.1179 96.4961 96.0923 99.2688 96.4049 102.808C96.4351 103.161 96.7376 103.433 97.0905 103.433H103.372H107.304C107.687 103.433 108 103.12 108 102.737V92.5337C108 92.1707 107.728 91.8783 107.375 91.848C103.836 91.5254 101.063 88.5612 101.063 84.9415C101.063 81.3219 103.836 78.3476 107.375 78.035C107.717 78.0048 107.99 77.7023 107.99 77.3494Z" fill="#BFE5D1"/>
 <path d="M70.9968 40.3567V30.1432C70.9968 29.7601 70.6842 29.4475 70.3011 29.4475H60.0976C59.7347 29.4475 59.4423 29.1753 59.412 28.8224C59.0995 25.2834 56.1251 22.5107 52.5055 22.5107C48.8758 22.5107 45.9116 25.2834 45.599 28.8224C45.5688 29.1753 45.2663 29.4475 44.9134 29.4475H34.7099C34.3268 29.4475 34.0142 29.7601 34.0142 30.1432V40.3467C34.0142 40.7096 33.742 41.002 33.3891 41.0323C29.8401 41.3549 27.0674 44.3293 27.0674 47.9489C27.0674 51.5685 29.8401 54.5428 33.379 54.8554C33.7319 54.8856 34.0041 55.1881 34.0041 55.541V65.7545C34.0041 66.1377 34.3167 66.4502 34.6998 66.4502H44.9033C45.2663 66.4502 45.5587 66.178 45.5889 65.8251C45.9015 62.2862 48.8758 59.5135 52.4954 59.5135C56.115 59.5135 59.0894 62.2862 59.4019 65.8251C59.4322 66.178 59.7347 66.4502 60.0875 66.4502H70.291C70.6741 66.4502 70.9867 66.1377 70.9867 65.7545V55.541C70.9867 55.178 70.7145 54.8856 70.3616 54.8554C66.8226 54.5428 64.0499 51.5685 64.0499 47.9489C64.0499 44.3293 66.8226 41.3549 70.3616 41.0424C70.7246 41.0121 70.9968 40.7096 70.9968 40.3567Z" fill="#BFE5D1"/>
 <path d="M75.5041 66.4499C75.5041 62.6186 78.6095 59.5132 82.4409 59.5132C86.2722 59.5132 89.3776 62.6186 89.3776 66.4499H100.942V78.0145C97.1109 78.0145 94.0055 81.1199 94.0055 84.9513C94.0055 88.7826 97.1109 91.888 100.942 91.888V103.453H89.3776C89.3776 99.6213 86.2722 96.5159 82.4409 96.5159C78.6095 96.5159 75.5041 99.6213 75.5041 103.453H63.9395V91.878C60.1082 91.878 57.0028 88.7726 57.0028 84.9412C57.0028 81.1099 60.1082 78.0045 63.9395 78.0045V66.4499V54.8853C60.1082 54.8853 57.0028 51.7799 57.0028 47.9485C57.0028 44.1172 60.1082 41.0118 63.9395 41.0118V29.4573H52.3749C52.3749 25.6259 49.2695 22.5205 45.4381 22.5205C41.6068 22.5205 38.5014 25.6259 38.5014 29.4573H33.8735H26.9368V41.0219C23.1054 41.0219 20 44.1273 20 47.9586C20 51.79 23.1054 54.8954 26.9368 54.8954V66.46H38.5014C38.5014 62.6287 41.6068 59.5232 45.4381 59.5232C49.2695 59.5232 52.3749 62.6287 52.3749 66.46" stroke="#26985D" stroke-width="4" stroke-miterlimit="10" stroke-linecap="round" stroke-linejoin="round"/>
</svg>