<?xml version="1.0" encoding="UTF-8"?>
<svg fill="#488359" width="100pt" height="100pt" version="1.1" viewBox="0 0 100 100" xmlns="http://www.w3.org/2000/svg">
  <g fill-rule="evenodd" stroke="#488359" stroke-width=".16908">
    <path transform="matrix(12.166 0 0 12.166 .64704 0)" d="m1.8582 6.9666c0 0.41934-0.34003 0.75937-0.75969 0.75937-0.41934 0-0.75969-0.34003-0.75969-0.75937 0-0.41966 0.34035-0.75969 0.75969-0.75969 0.41966 0 0.75969 0.34003 0.75969 0.75969"/>
    <path transform="matrix(12.166 0 0 12.166 .64704 0)" d="m1.5843 5.8425c-0.36925-0.13004-0.73143-0.11784-1.1032 0.071923-1.0997-4.3131 0.35576-0.75134 1.1032-0.071923z"/>
    <path transform="matrix(12.166 0 0 12.166 .64704 0)" d="m2.3023 6.6712c0.093435 0.44021 0.005137 0.76097-0.21192 0.99729 4.9807-1.0467 1.2407-0.62323 0.21192-0.99729z"/>
    <path transform="matrix(-.15404 -3.3083 3.3083 -.15404 81.432 84.554)" d="m2.791-4.9046e-4c-9.56e-4 1.542-1.2505 2.7909-2.7914 2.7912-1.5409 2.78e-4 -2.7898-1.2493-2.7901-2.7902-2.23e-4 -1.5421 1.2493-2.791 2.7902-2.7913 1.5409-2.78e-4 2.791 1.2493 2.7913 2.7902"/>
    <path transform="matrix(12.166 0 0 12.166 .64704 0)" d="m5.5388 6.5944c-0.1127 0.37471-0.083803 0.73625 0.1233 1.0984-4.2168 1.1447-0.90739-0.18751-0.1233-1.0984z"/>
    <path transform="matrix(12.166 0 0 12.166 .64704 0)" d="m6.5265 5.7895c0.44952-0.018944 0.75134 0.12105 0.94816 0.37439-0.25879-5.261-0.45562-1.2436-0.94816-0.37439z"/>
    <path transform="matrix(.6331 3.2508 -3.2508 .6331 16.416 18.917)" d="m2.7905-3.3638e-4c1.52e-4 1.5417-1.2489 2.7909-2.7906 2.7911-1.5406 3.77e-4 -2.7907-1.2501-2.7899-2.7904-1.52e-4 -1.5417 1.2489-2.7909 2.7906-2.7911 1.5403 7.81e-4 2.7895 1.2498 2.7899 2.7904"/>
    <path transform="matrix(12.166 0 0 12.166 .64704 0)" d="m2.4924 1.817c0.057153-0.38723-0.024402-0.74042-0.28159-1.0689 3.8768-1.6244 0.96775 0.12105 0.28159 1.0689z"/>
    <path transform="matrix(12.166 0 0 12.166 .64704 0)" d="m1.628 2.7234c-0.44181 0.084125-0.76097-0.010917-0.99247-0.23279 0.86597 4.8327 0.59658 1.2545 0.99247 0.23279z"/>
    <path transform="matrix(-3.2892 .38644 -.38644 -3.2892 82.88 12.064)" d="m2.7902-6.0176e-4c5.88e-4 1.5416-1.2495 2.7913-2.7898 2.7908-1.5416 5.87e-4 -2.7913-1.2495-2.7908-2.7898 5.84e-4 -1.5414 1.2495-2.7913 2.7909-2.7907 1.5404-7.25e-4 2.7901 1.2494 2.7897 2.7896"/>
    <path transform="matrix(12.166 0 0 12.166 .64704 0)" d="m6.4886 2.1009c0.3731 0.11784 0.73496 0.093436 1.1-0.10853 1.1732 3.9481-0.27292 0.93628-1.1 0.10853z"/>
    <path transform="matrix(12.166 0 0 12.166 .64704 0)" d="m5.6599 1.3852c-0.14417-0.4264-0.094078-0.75519 0.093757-1.015-4.0412 1.0532-1.1598 0.76354-0.093757 1.015z"/>
  </g>
</svg>
