<?xml version="1.0" encoding="UTF-8"?>
<svg width="128" height="128" viewBox="0 0 128 128" fill="none" xmlns="http://www.w3.org/2000/svg">
  <rect x="26.5672" y="34.5406" width="81.4328" height="55.5224" rx="9.20773" fill="#BFE5D1"/>
  <path d="M50.2089 34.5406H29.2077C24.1224 34.5406 20 38.6631 20 43.7484V80.8553C20 85.9406 24.1224 90.063 29.2077 90.063H92.2251C97.3104 90.063 101.433 85.9406 101.433 80.8553V43.7484C101.433 38.6631 97.3104 34.5406 92.2251 34.5406H71.2239" stroke="#26985D" stroke-width="5.22761" stroke-linecap="round"/>
  <circle cx="35.8853" cy="62.1227" r="3.92071" fill="#26985D"/>
  <circle cx="60.7164" cy="62.1227" r="10.4552" stroke="#26985D" stroke-width="5.22761"/>
  <circle cx="85.5476" cy="62.1227" r="3.92071" fill="#26985D"/>
  <path d="M42.3283 26.66L50.2089 34.5406L42.3283 42.4212" stroke="#26985D" stroke-width="5.22761" stroke-linecap="round" stroke-linejoin="round"/>
  <path d="M72.1221 108.952C73.8464 108.952 75.2442 107.554 75.2442 105.829C75.2442 104.105 73.8464 102.707 72.1221 102.707C70.3978 102.707 69 104.105 69 105.829C69 107.554 70.3978 108.952 72.1221 108.952Z" fill="#26985D"/>
  <path d="M89.295 104.733V113.089" stroke="#26985D" stroke-width="4" stroke-miterlimit="10" stroke-linecap="round" stroke-linejoin="round"/>
  <path d="M93.468 108.906H85.1221" stroke="#26985D" stroke-width="4" stroke-miterlimit="10" stroke-linecap="round" stroke-linejoin="round"/>
  <path d="M101.173 14.911V23.2672" stroke="#26985D" stroke-width="4" stroke-miterlimit="10" stroke-linecap="round" stroke-linejoin="round"/>
  <path d="M105.346 19.084H97" stroke="#26985D" stroke-width="4" stroke-miterlimit="10" stroke-linecap="round" stroke-linejoin="round"/>
</svg>
